<svg width="16" height="16" viewBox="0 0 16 16" fill="none" xmlns="http://www.w3.org/2000/svg">
<g clip-path="url(#clip0_318_685)">
<path d="M7.58238 10.5108L6.98931 11.8692C6.76158 12.3914 6.03891 12.3914 5.81065 11.8692L5.21758 10.5108C4.68958 9.30178 3.73971 8.33965 2.55465 7.81378L0.922647 7.08951C0.403714 6.85911 0.403714 6.10391 0.922647 5.87351L2.50398 5.17165C3.71945 4.63191 4.68638 3.63405 5.20531 2.38445L5.80585 0.93698C6.02878 0.399913 6.77118 0.399913 6.99411 0.93698L7.59465 2.38445C8.11358 3.63458 9.08051 4.63245 10.296 5.17165L11.8773 5.87351C12.3962 6.10391 12.3962 6.85911 11.8773 7.08951L10.2448 7.81431C9.06025 8.34018 8.10985 9.30231 7.58238 10.5108Z" fill="white"/>
<path d="M13.0565 14.8243L12.8757 15.2387C12.7434 15.5421 12.3232 15.5421 12.1909 15.2387L12.0101 14.8243C11.688 14.0856 11.1072 13.4973 10.3829 13.1752L9.8261 12.9277C9.52476 12.7939 9.52476 12.356 9.8261 12.2221L10.352 11.9885C11.0949 11.6584 11.6858 11.0483 12.0026 10.2845L12.1882 9.83654C12.3178 9.52454 12.7493 9.52454 12.8784 9.83654L13.064 10.2845C13.3808 11.0483 13.9717 11.6584 14.7146 11.9885L15.2405 12.2221C15.5418 12.356 15.5418 12.7939 15.2405 12.9277L14.6837 13.1752C13.9594 13.4973 13.3786 14.0856 13.0565 14.8243Z" fill="white"/>
</g>
<defs>
<clipPath id="clip0_318_685">
<rect width="16" height="16" fill="white"/>
</clipPath>
</defs>
</svg>
