<svg width="250" height="250" viewBox="0 0 250 250" fill="none" xmlns="http://www.w3.org/2000/svg">
<rect width="250" height="250" rx="40" fill="white"/>
<path fill-rule="evenodd" clip-rule="evenodd" d="M225 42L205.36 85.0199L134.652 96.5438L146.36 70.8989C150.448 61.9441 157.865 56.0182 167.505 54.0054L225 42Z" fill="black" stroke="black" stroke-width="0.755906" stroke-miterlimit="22.9256"/>
<path fill-rule="evenodd" clip-rule="evenodd" d="M166.046 171.134L185.709 128.064L133.463 134.065C122.724 135.299 114.098 141.566 109.611 151.396L98.6217 175.466L166.046 171.134Z" fill="black" stroke="black" stroke-width="0.755906" stroke-miterlimit="22.9256"/>
<path fill-rule="evenodd" clip-rule="evenodd" d="M144.834 89.2705L126.822 128.724L57.7534 136.657L67.4786 115.355C71.7602 105.977 79.7502 99.8779 89.929 98.2189L144.834 89.2705Z" fill="black" stroke="black" stroke-width="0.755906" stroke-miterlimit="22.9256"/>
<path fill-rule="evenodd" clip-rule="evenodd" d="M108.803 168.193L90.7768 207.678L25 208.4L33.9301 188.84C38.637 178.53 47.9676 172.102 59.2817 171.375L108.803 168.193Z" fill="black" stroke="black" stroke-width="0.755906" stroke-miterlimit="22.9256"/>
</svg>
